# xmcd CD database file
#
# Track frame offsets:
#	150
#	20357
#	32655
#
# Disc length: 619 seconds
#
# Revision: 2
# Processed by: cddbd v1.5.1PL0 Copyright (c) Steve Scherf et al.
# Submitted via: CDex 1.51
#
DISCID=18026903
DTITLE=Silverchair - Israel's Son
DYEAR=1996
DGENRE=Rock
TTITLE0=Israel's Son
TTITLE1=Madman (Vocal Mix)
TTITLE2=Leave Me Out (Live)
EXTD=YEAR: 1996
EXTT0=
EXTT1=
EXTT2=
PLAYORDER=
